<svg width="20" height="20" viewBox="0 0 20 20" fill="none" xmlns="http://www.w3.org/2000/svg">
<path d="M11.8614 5.78746C11.851 6.39072 11.8592 6.99344 11.8592 7.61792C11.9451 7.62173 12.0164 7.62825 12.0882 7.62825C12.7937 7.6288 13.4998 7.62771 14.2059 7.6288C14.6334 7.62989 14.739 7.73487 14.7395 8.15482C14.7406 8.96261 14.7411 9.77041 14.7395 10.5782C14.7384 10.9525 14.6454 11.0471 14.269 11.0487C13.5493 11.052 12.8302 11.0498 12.1105 11.0498H11.8603V17.6765C11.8603 18.2754 11.8015 18.333 11.1928 18.333C10.4188 18.333 9.64523 18.3336 8.8717 18.3325C8.44197 18.3319 8.34242 18.2335 8.34188 17.807C8.34133 15.6556 8.34188 13.5037 8.34188 11.3517V11.0874C8.25919 11.0825 8.18793 11.0748 8.11667 11.0748C7.52647 11.0738 6.93571 11.0754 6.34551 11.0738C5.9359 11.0721 5.8369 10.9769 5.83581 10.5711C5.83254 9.77694 5.83309 8.98274 5.83526 8.18854C5.83635 7.76642 5.93318 7.67177 6.3504 7.67123C6.93408 7.67069 7.51776 7.67123 8.10144 7.67123H8.34188C8.34188 7.57059 8.34079 7.49118 8.34188 7.41176C8.35602 6.63823 8.32828 5.86144 8.39355 5.09281C8.55892 3.15791 10.0467 1.75719 11.9908 1.6843C12.8041 1.65384 13.6189 1.67124 14.4338 1.67342C14.7031 1.67451 14.8184 1.79092 14.82 2.06181C14.8244 2.86961 14.8244 3.6774 14.82 4.4852C14.8184 4.7599 14.7052 4.8687 14.4104 4.87577C13.861 4.88882 13.311 4.88937 12.7616 4.89753C12.1241 4.90732 11.8728 5.1483 11.8614 5.78746Z" fill="#555555"/>
</svg>
