<svg width="20" height="20" viewBox="0 0 20 20" fill="none" xmlns="http://www.w3.org/2000/svg">
<path d="M16.4369 7.27943C16.4417 8.55307 16.2122 9.78284 15.6499 10.9336C15.0391 12.183 14.134 13.1428 12.8084 13.6281C11.7987 13.9986 10.7666 14.0897 9.75692 13.6065C9.49098 13.4796 9.25002 13.3014 8.98544 13.1387C8.89972 13.4681 8.8059 13.8096 8.72288 14.1538C8.49745 15.0927 8.22612 16.016 7.80765 16.8908C7.60111 17.3221 7.37905 17.7446 7.02267 18.076C6.95585 18.1381 6.87958 18.1921 6.80061 18.2393C6.49756 18.4196 6.19653 18.3359 6.03252 18.0254C5.8658 17.7095 5.8334 17.3639 5.82395 17.0157C5.79291 15.8237 6.00957 14.6655 6.29237 13.514C6.61163 12.2154 6.91266 10.9114 7.21571 9.6087C7.23596 9.52095 7.22584 9.41633 7.19816 9.32927C6.86878 8.28916 6.84314 7.2693 7.41077 6.29737C7.72328 5.7628 8.1728 5.40103 8.80388 5.30181C9.69415 5.16142 10.4798 5.8033 10.5453 6.70234C10.5932 7.35232 10.4096 7.95776 10.2388 8.56792C10.0802 9.13083 9.90811 9.68969 9.75017 10.2526C9.66242 10.5651 9.67052 10.8769 9.83724 11.1665C10.1214 11.6579 10.5763 11.8178 11.1088 11.7699C11.7339 11.7146 12.1908 11.3568 12.5587 10.8756C13.0291 10.26 13.2896 9.55133 13.4462 8.80145C13.6042 8.04348 13.6872 7.27875 13.5751 6.50728C13.3949 5.26199 12.6997 4.41762 11.5104 4.03155C10.3104 3.6421 9.11098 3.69744 7.96896 4.26508C6.78509 4.85297 6.08516 5.833 5.79696 7.10934C5.65117 7.75797 5.62417 8.41403 5.89145 9.04309C5.98527 9.2638 6.12296 9.47168 6.26942 9.66404C6.44424 9.89285 6.51511 10.1271 6.43749 10.4072C6.37202 10.6421 6.32005 10.8803 6.25255 11.1145C6.12026 11.5775 5.78953 11.7294 5.35216 11.5343C4.48417 11.1476 3.94421 10.4625 3.6452 9.5871C3.15788 8.16227 3.24293 6.75229 3.89358 5.39765C4.85 3.40789 6.47056 2.26856 8.60814 1.82984C8.9409 1.76167 9.28377 1.73872 9.62192 1.6935C9.65837 1.68878 9.69415 1.67595 9.72992 1.6665H10.6418C10.824 1.6881 11.0063 1.70768 11.1885 1.73197C12.7416 1.93446 14.0746 2.57567 15.1073 3.76764C15.9753 4.76995 16.4329 5.94572 16.4369 7.27943Z" fill="#FF782D"/>
</svg>
