<svg width="20" height="20" viewBox="0 0 20 20" fill="none" xmlns="http://www.w3.org/2000/svg">
<path d="M18.8686 5.72938C18.6681 4.62192 17.9913 3.91099 16.9331 3.71745C16.4964 3.63728 16.0518 3.57887 15.6083 3.55883C13.7275 3.47379 11.8458 3.40708 9.96443 3.3335C9.96386 3.35297 9.96329 3.37244 9.96272 3.3919C9.53009 3.3919 9.09719 3.38561 8.66485 3.39305C6.87108 3.42311 5.07703 3.44287 3.29271 3.66562C2.18295 3.80391 1.4142 4.46387 1.18314 5.56103C1.05401 6.17375 0.983578 6.80192 0.932614 7.42695C0.823527 8.76375 0.796614 10.1049 0.89167 11.4437C0.950651 12.2717 1.02624 13.1023 1.16396 13.9203C1.34462 14.9917 2.08303 15.7 3.12264 15.8544C3.73822 15.9457 4.35981 16.0236 4.98111 16.0439C6.88826 16.1057 8.79655 16.163 10.7046 16.1725C12.6066 16.1822 14.5094 16.137 16.404 15.938C16.8924 15.8864 17.3737 15.8085 17.8006 15.5351C18.5067 15.083 18.8279 14.4036 18.9049 13.6056C19.0089 12.5259 19.1142 11.4437 19.1497 10.3605C19.201 8.81071 19.1454 7.26146 18.8686 5.72938ZM8.18727 12.5185V7.04558C9.77575 7.95864 11.3476 8.86225 12.9473 9.78189C11.3499 10.7004 9.77833 11.6037 8.18727 12.5185Z" fill="#555555"/>
</svg>
